<?xml version="1.0" encoding="iso-8859-1"?>
<!-- Generator: Adobe Illustrator 18.0.0, SVG Export Plug-In . SVG Version: 6.00 Build 0)  -->
<!DOCTYPE svg PUBLIC "-//W3C//DTD SVG 1.1//EN" "http://www.w3.org/Graphics/SVG/1.1/DTD/svg11.dtd">
<svg version="1.1" id="Capa_1" xmlns="http://www.w3.org/2000/svg" xmlns:xlink="http://www.w3.org/1999/xlink" x="0px" y="0px"
	 viewBox="0 0 216.651 216.651" style="enable-background:new 0 0 216.651 216.651;" xml:space="preserve">
<g>
	<path d="M208.558,58.002c-9.634,0.102-19.306,0.173-28.97,0.25c18.399-13.878,22.926-43.227-0.962-55.142
		c-27.28-13.607-51.526,20.589-60.694,41.884c-2.16-2.529-5.386-3.864-9.606-2.654c-0.754,0.216-1.46,0.544-2.135,0.92
		C96.938,24.015,71.507-6.405,48.736,12.275C34.728,23.767,35.362,51.689,51.2,61.082c-14.194,0.725-28.365,1.624-42.482,2.85
		c-0.641,0.056-0.962,0.497-1.094,0.98c-0.594-0.067-1.211,0.259-1.24,1.072c-0.238,6.651,2.719,13.469,4.406,19.852
		c2.113,7.994,4.273,15.957,6.625,23.885c0.275,0.928,1.256,1.035,1.864,0.618c-0.413,0.704-0.179,1.734,0.9,1.722
		c5.598-0.065,11.202-0.234,16.806-0.402c1.23,8.487,2.602,16.959,4.035,25.424c-0.003,0.045,0.015,0.078,0.02,0.121
		c1.96,11.579,4.049,23.141,6.19,34.693c-0.347,0.362-0.264,0.971,0.211,1.143c1.877,10.115,3.767,20.226,5.624,30.334
		c-0.054,0.245-0.035,0.51,0.133,0.72c0.394,2.146,0.8,4.292,1.189,6.438c0.166,0.918,0.905,1.21,1.613,1.083
		c0.133,0.298,0.375,0.533,0.773,0.589c40.048,5.575,80.934,5.364,121.196,2.365c0.874,0.703,2.31,0.641,2.507-0.736
		c5.315-37.214,10.993-75.151,11.561-112.797c2.355-0.163,4.714-0.344,7.068-0.499c1.353-0.089,1.915-1.323,1.737-2.351
		c0.071-0.09,0.168-0.133,0.209-0.269c3.584-11.883,6.73-24.428,8.597-36.72C210.758,60.26,210.415,57.982,208.558,58.002z
		 M119.348,46.449c8.863-15.175,20.946-37.668,40.059-41.5c14.686-2.945,27.246,4.395,30.995,18.867
		c3.675,14.186-4.33,26.607-16.281,33.775c-0.323,0.194-0.515,0.445-0.653,0.713c-17.649,0.141-35.32,0.294-53.005,0.58
		c1.186-3.962,0.675-8.765-1.359-12.255C119.185,46.566,119.29,46.549,119.348,46.449z M110.485,45.32
		c7.337-0.738,8.299,8.642,6.359,13.622c-2.68,0.046-5.359,0.076-8.039,0.13c-0.026-0.04-0.029-0.089-0.068-0.123
		c-2.13-1.857-4.231-4.136-4.32-7.135C104.315,48.347,107.139,45.657,110.485,45.32z M49.092,54.605
		c5.47-0.035,10.894-0.369,16.301-1.262c0.792-0.131,0.617-1.512-0.191-1.415c-5.702,0.681-11.41,1.213-17.151,1.392
		c-1.953-2.574-3.347-5.544-4.277-8.672c4.002,0.068,8.001,0.059,12.005-0.029c0.927-0.02,0.929-1.421,0-1.441
		c-4.144-0.091-8.284-0.101-12.427-0.023c-0.796-3.29-1.021-6.724-0.748-10.083c6.623-0.997,13.158-1.405,19.895-1.012
		c1.101,0.064,1.056-1.57,0-1.688c-6.586-0.733-13.259-0.394-19.736,1.014c0.534-3.951,1.827-7.722,3.827-10.951
		c5.527,0.117,11.076,0.281,16.592,0.05c1.049-0.044,1.051-1.587,0-1.631c-5.168-0.217-10.362-0.084-15.542,0.029
		c1.692-2.295,3.817-4.209,6.321-5.634c4.188,0.27,8.384,0.536,12.58,0.567c0.976,0.007,0.949-1.422,0-1.498
		c-3.203-0.255-6.417-0.365-9.632-0.45c2.464-0.892,5.227-1.348,8.308-1.224c17.512,0.704,30.428,20.358,39.22,33.824
		c-1.986,1.735-3.265,4.211-3.224,6.965c0.045,3.011,1.555,6.216,4.124,7.723c-15.93,0.342-31.851,0.837-47.74,1.578
		c-0.032-0.015-0.05-0.04-0.084-0.054C54.121,59.279,51.328,57.165,49.092,54.605z M20.18,109.708
		c-0.256,0.032-0.415,0.181-0.586,0.314c0.165-0.246,0.236-0.567,0.144-0.942c-0.527-2.154-1.132-4.328-1.762-6.511
		c7.206-0.109,14.508-0.329,21.663-1.157c0.945-0.109,1.002-1.505,0-1.517c-7.352-0.091-14.796,0.47-22.12,1.121
		c-0.719-2.435-1.478-4.886-2.236-7.345c18.264-0.113,36.495-0.883,54.627-3.169c1.074-0.135,1.125-1.819,0-1.726
		c-18.336,1.531-36.646,2.987-55.04,3.553c-0.932-3.029-1.824-6.071-2.667-9.115c5.804-0.464,11.523-0.119,17.325-0.216
		c0.904-0.015,0.847-1.257,0-1.365c-5.745-0.732-11.794-0.099-17.517,0.605c-0.028,0.004-0.038,0.028-0.064,0.035
		c-0.81-2.985-1.529-5.972-2.116-8.952c6.102,0.328,12.245,0.424,18.354,0.38c1.11-0.008,1.112-1.718,0-1.726
		c-6.168-0.044-12.371,0.05-18.532,0.387c-0.367-1.974-0.687-3.945-0.892-5.91c27.039-0.07,54.085-0.8,81.134-1.671
		c0.766,12.789,1.479,25.588,2.179,38.391C68.005,104.763,43.992,106.735,20.18,109.708z M57.401,209.763
		c-0.003-0.023,0.005-0.041,0.001-0.064c-0.304-1.681-0.594-3.368-0.895-5.05c6.931,0.666,13.873,0.888,20.805,0.014
		c0.762-0.096,0.818-1.237,0-1.232c-7.052,0.037-14.067,0.088-21.094-0.41c-0.48-2.692-0.949-5.39-1.424-8.084
		c6.385-0.383,12.761-0.287,19.152-0.133c0.984,0.024,0.965-1.449,0-1.517c-6.467-0.456-12.903-0.114-19.344,0.563
		c-0.589-3.342-1.175-6.686-1.762-10.03c3.737,0.302,7.529,0.24,11.213-0.448c0.686-0.128,0.538-1.29-0.166-1.229
		c-3.774,0.327-7.488,0.533-11.258,0.477c-0.563-3.21-1.133-6.42-1.699-9.63c7.887-0.437,15.795-0.599,23.691-0.563
		c0.812,0.004,0.798-1.201,0-1.251c-8.027-0.505-15.971-0.336-23.964,0.262c-0.63-3.567-1.27-7.131-1.91-10.696
		c3.529-0.349,7.07-0.641,10.58-1.153c0.826-0.12,0.641-1.569-0.199-1.471c-3.536,0.411-7.047,1.046-10.56,1.618
		c-0.589-3.274-1.22-6.539-1.823-9.81c5.711-0.116,11.438-0.281,17.114-0.874c0.926-0.096,0.973-1.475,0-1.479
		c-5.798-0.02-11.605,0.404-17.389,0.873c-0.671-3.627-1.374-7.248-2.064-10.87c9.697-0.455,19.445-0.785,29.063-2.092
		c0.805-0.109,0.594-1.403-0.189-1.397c-9.729,0.075-19.451,1.167-29.137,2.103c-0.822-4.294-1.661-8.585-2.523-12.869
		c6.303-0.427,12.596-1.091,18.873-1.794c1.098-0.123,1.125-1.851,0-1.745c-6.396,0.607-12.798,1.259-19.163,2.146
		c-0.698-3.445-1.404-6.889-2.149-10.323c17.716-0.569,35.457-1.608,53.201-2.852c1.881,34.467,3.765,68.951,6.612,103.323
		C85.164,211.534,71.318,210.733,57.401,209.763z M128.098,212.722c-8.98-0.062-17.955-0.22-26.935-0.553
		c-1.249-34.549-3.475-69.094-5.701-103.623c11.3-0.808,22.598-1.705,33.892-2.618C127.526,141.52,126.5,177.268,128.098,212.722z
		 M95.106,102.98c-0.822-12.766-1.629-25.53-2.384-38.29c13.022-0.424,26.046-0.865,39.069-1.291
		c-0.765,12.478-1.522,24.998-2.191,37.542C118.1,101.581,106.598,102.237,95.106,102.98z M177.529,211.36
		c-15.938,1.088-31.777,1.442-47.594,1.37c1.387-35.714,1.814-71.405,3.094-107.099c19.078-1.548,38.14-3.131,57.153-4.468
		C185.311,137.817,182.752,174.713,177.529,211.36z M199.46,96.846c-0.121-0.014-0.221-0.057-0.357-0.048
		c-21.882,1.55-43.887,2.723-65.908,3.942c0.477-12.481,1.075-24.963,1.866-37.447c23.865-0.771,47.732-1.449,71.598-1.663
		C203.424,73.054,201.136,85.122,199.46,96.846z"/>
</g>
<g>
</g>
<g>
</g>
<g>
</g>
<g>
</g>
<g>
</g>
<g>
</g>
<g>
</g>
<g>
</g>
<g>
</g>
<g>
</g>
<g>
</g>
<g>
</g>
<g>
</g>
<g>
</g>
<g>
</g>
</svg>
